<?xml version="1.0" encoding="utf-8" standalone="no"?>
<!DOCTYPE svg PUBLIC "-//W3C//DTD SVG 1.1//EN"
  "http://www.w3.org/Graphics/SVG/1.1/DTD/svg11.dtd">
<svg xmlns:xlink="http://www.w3.org/1999/xlink" width="568.37125pt" height="311.416687pt" viewBox="0 0 568.37125 311.416687" xmlns="http://www.w3.org/2000/svg" version="1.1">
 <metadata>
  <rdf:RDF xmlns:dc="http://purl.org/dc/elements/1.1/" xmlns:cc="http://creativecommons.org/ns#" xmlns:rdf="http://www.w3.org/1999/02/22-rdf-syntax-ns#">
   <cc:Work>
    <dc:type rdf:resource="http://purl.org/dc/dcmitype/StillImage"/>
    <dc:date>2026-07-02T08:33:12.418793</dc:date>
    <dc:format>image/svg+xml</dc:format>
    <dc:creator>
     <cc:Agent>
      <dc:title>Matplotlib v3.10.1, https://matplotlib.org/</dc:title>
     </cc:Agent>
    </dc:creator>
   </cc:Work>
  </rdf:RDF>
 </metadata>
 <defs>
  <style type="text/css">*{stroke-linejoin: round; stroke-linecap: butt}</style>
 </defs>
 <g id="figure_1">
  <g id="patch_1">
   <path d="M 0 311.416687 
L 568.37125 311.416687 
L 568.37125 0 
L 0 0 
z
" style="fill: #ffffff"/>
  </g>
  <g id="axes_1">
   <g id="patch_2">
    <path d="M 43.78125 251.92 
L 277.401145 251.92 
L 277.401145 66.912 
L 43.78125 66.912 
z
" style="fill: #ffffff"/>
   </g>
   <g id="patch_3">
    <path d="M 78.29328 251.92 
L 136.698254 251.92 
L 136.698254 156.616067 
L 78.29328 156.616067 
z
" clip-path="url(#p67f3011b0c)" style="fill: #6c5b9e; opacity: 0.85"/>
   </g>
   <g id="patch_4">
    <path d="M 184.484142 251.92 
L 242.889115 251.92 
L 242.889115 250.606589 
L 184.484142 250.606589 
z
" clip-path="url(#p67f3011b0c)" style="fill: #0e7c86; opacity: 0.85"/>
   </g>
   <g id="matplotlib.axis_1">
    <g id="xtick_1">
     <g id="line2d_1">
      <defs>
       <path id="m184bc0971f" d="M 0 0 
L 0 3.5 
" style="stroke: #000000; stroke-width: 0.8"/>
      </defs>
      <g>
       <use xlink:href="#m184bc0971f" x="107.495767" y="251.92" style="stroke: #000000; stroke-width: 0.8"/>
      </g>
     </g>
     <g id="text_1">
      <!-- baseline -->
      <g transform="translate(86.552798 266.518438) scale(0.1 -0.1)">
       <defs>
        <path id="DejaVuSans-62" d="M 3116 1747 
Q 3116 2381 2855 2742 
Q 2594 3103 2138 3103 
Q 1681 3103 1420 2742 
Q 1159 2381 1159 1747 
Q 1159 1113 1420 752 
Q 1681 391 2138 391 
Q 2594 391 2855 752 
Q 3116 1113 3116 1747 
z
M 1159 2969 
Q 1341 3281 1617 3432 
Q 1894 3584 2278 3584 
Q 2916 3584 3314 3078 
Q 3713 2572 3713 1747 
Q 3713 922 3314 415 
Q 2916 -91 2278 -91 
Q 1894 -91 1617 61 
Q 1341 213 1159 525 
L 1159 0 
L 581 0 
L 581 4863 
L 1159 4863 
L 1159 2969 
z
" transform="scale(0.015625)"/>
        <path id="DejaVuSans-61" d="M 2194 1759 
Q 1497 1759 1228 1600 
Q 959 1441 959 1056 
Q 959 750 1161 570 
Q 1363 391 1709 391 
Q 2188 391 2477 730 
Q 2766 1069 2766 1631 
L 2766 1759 
L 2194 1759 
z
M 3341 1997 
L 3341 0 
L 2766 0 
L 2766 531 
Q 2569 213 2275 61 
Q 1981 -91 1556 -91 
Q 1019 -91 701 211 
Q 384 513 384 1019 
Q 384 1609 779 1909 
Q 1175 2209 1959 2209 
L 2766 2209 
L 2766 2266 
Q 2766 2663 2505 2880 
Q 2244 3097 1772 3097 
Q 1472 3097 1187 3025 
Q 903 2953 641 2809 
L 641 3341 
Q 956 3463 1253 3523 
Q 1550 3584 1831 3584 
Q 2591 3584 2966 3190 
Q 3341 2797 3341 1997 
z
" transform="scale(0.015625)"/>
        <path id="DejaVuSans-73" d="M 2834 3397 
L 2834 2853 
Q 2591 2978 2328 3040 
Q 2066 3103 1784 3103 
Q 1356 3103 1142 2972 
Q 928 2841 928 2578 
Q 928 2378 1081 2264 
Q 1234 2150 1697 2047 
L 1894 2003 
Q 2506 1872 2764 1633 
Q 3022 1394 3022 966 
Q 3022 478 2636 193 
Q 2250 -91 1575 -91 
Q 1294 -91 989 -36 
Q 684 19 347 128 
L 347 722 
Q 666 556 975 473 
Q 1284 391 1588 391 
Q 1994 391 2212 530 
Q 2431 669 2431 922 
Q 2431 1156 2273 1281 
Q 2116 1406 1581 1522 
L 1381 1569 
Q 847 1681 609 1914 
Q 372 2147 372 2553 
Q 372 3047 722 3315 
Q 1072 3584 1716 3584 
Q 2034 3584 2315 3537 
Q 2597 3491 2834 3397 
z
" transform="scale(0.015625)"/>
        <path id="DejaVuSans-65" d="M 3597 1894 
L 3597 1613 
L 953 1613 
Q 991 1019 1311 708 
Q 1631 397 2203 397 
Q 2534 397 2845 478 
Q 3156 559 3463 722 
L 3463 178 
Q 3153 47 2828 -22 
Q 2503 -91 2169 -91 
Q 1331 -91 842 396 
Q 353 884 353 1716 
Q 353 2575 817 3079 
Q 1281 3584 2069 3584 
Q 2775 3584 3186 3129 
Q 3597 2675 3597 1894 
z
M 3022 2063 
Q 3016 2534 2758 2815 
Q 2500 3097 2075 3097 
Q 1594 3097 1305 2825 
Q 1016 2553 972 2059 
L 3022 2063 
z
" transform="scale(0.015625)"/>
        <path id="DejaVuSans-6c" d="M 603 4863 
L 1178 4863 
L 1178 0 
L 603 0 
L 603 4863 
z
" transform="scale(0.015625)"/>
        <path id="DejaVuSans-69" d="M 603 3500 
L 1178 3500 
L 1178 0 
L 603 0 
L 603 3500 
z
M 603 4863 
L 1178 4863 
L 1178 4134 
L 603 4134 
L 603 4863 
z
" transform="scale(0.015625)"/>
        <path id="DejaVuSans-6e" d="M 3513 2113 
L 3513 0 
L 2938 0 
L 2938 2094 
Q 2938 2591 2744 2837 
Q 2550 3084 2163 3084 
Q 1697 3084 1428 2787 
Q 1159 2491 1159 1978 
L 1159 0 
L 581 0 
L 581 3500 
L 1159 3500 
L 1159 2956 
Q 1366 3272 1645 3428 
Q 1925 3584 2291 3584 
Q 2894 3584 3203 3211 
Q 3513 2838 3513 2113 
z
" transform="scale(0.015625)"/>
       </defs>
       <use xlink:href="#DejaVuSans-62"/>
       <use xlink:href="#DejaVuSans-61" transform="translate(63.476562 0)"/>
       <use xlink:href="#DejaVuSans-73" transform="translate(124.755859 0)"/>
       <use xlink:href="#DejaVuSans-65" transform="translate(176.855469 0)"/>
       <use xlink:href="#DejaVuSans-6c" transform="translate(238.378906 0)"/>
       <use xlink:href="#DejaVuSans-69" transform="translate(266.162109 0)"/>
       <use xlink:href="#DejaVuSans-6e" transform="translate(293.945312 0)"/>
       <use xlink:href="#DejaVuSans-65" transform="translate(357.324219 0)"/>
      </g>
     </g>
    </g>
    <g id="xtick_2">
     <g id="line2d_2">
      <g>
       <use xlink:href="#m184bc0971f" x="213.686628" y="251.92" style="stroke: #000000; stroke-width: 0.8"/>
      </g>
     </g>
     <g id="text_2">
      <!-- min-cost -->
      <g transform="translate(192.08116 266.518438) scale(0.1 -0.1)">
       <defs>
        <path id="DejaVuSans-6d" d="M 3328 2828 
Q 3544 3216 3844 3400 
Q 4144 3584 4550 3584 
Q 5097 3584 5394 3201 
Q 5691 2819 5691 2113 
L 5691 0 
L 5113 0 
L 5113 2094 
Q 5113 2597 4934 2840 
Q 4756 3084 4391 3084 
Q 3944 3084 3684 2787 
Q 3425 2491 3425 1978 
L 3425 0 
L 2847 0 
L 2847 2094 
Q 2847 2600 2669 2842 
Q 2491 3084 2119 3084 
Q 1678 3084 1418 2786 
Q 1159 2488 1159 1978 
L 1159 0 
L 581 0 
L 581 3500 
L 1159 3500 
L 1159 2956 
Q 1356 3278 1631 3431 
Q 1906 3584 2284 3584 
Q 2666 3584 2933 3390 
Q 3200 3197 3328 2828 
z
" transform="scale(0.015625)"/>
        <path id="DejaVuSans-2d" d="M 313 2009 
L 1997 2009 
L 1997 1497 
L 313 1497 
L 313 2009 
z
" transform="scale(0.015625)"/>
        <path id="DejaVuSans-63" d="M 3122 3366 
L 3122 2828 
Q 2878 2963 2633 3030 
Q 2388 3097 2138 3097 
Q 1578 3097 1268 2742 
Q 959 2388 959 1747 
Q 959 1106 1268 751 
Q 1578 397 2138 397 
Q 2388 397 2633 464 
Q 2878 531 3122 666 
L 3122 134 
Q 2881 22 2623 -34 
Q 2366 -91 2075 -91 
Q 1284 -91 818 406 
Q 353 903 353 1747 
Q 353 2603 823 3093 
Q 1294 3584 2113 3584 
Q 2378 3584 2631 3529 
Q 2884 3475 3122 3366 
z
" transform="scale(0.015625)"/>
        <path id="DejaVuSans-6f" d="M 1959 3097 
Q 1497 3097 1228 2736 
Q 959 2375 959 1747 
Q 959 1119 1226 758 
Q 1494 397 1959 397 
Q 2419 397 2687 759 
Q 2956 1122 2956 1747 
Q 2956 2369 2687 2733 
Q 2419 3097 1959 3097 
z
M 1959 3584 
Q 2709 3584 3137 3096 
Q 3566 2609 3566 1747 
Q 3566 888 3137 398 
Q 2709 -91 1959 -91 
Q 1206 -91 779 398 
Q 353 888 353 1747 
Q 353 2609 779 3096 
Q 1206 3584 1959 3584 
z
" transform="scale(0.015625)"/>
        <path id="DejaVuSans-74" d="M 1172 4494 
L 1172 3500 
L 2356 3500 
L 2356 3053 
L 1172 3053 
L 1172 1153 
Q 1172 725 1289 603 
Q 1406 481 1766 481 
L 2356 481 
L 2356 0 
L 1766 0 
Q 1100 0 847 248 
Q 594 497 594 1153 
L 594 3053 
L 172 3053 
L 172 3500 
L 594 3500 
L 594 4494 
L 1172 4494 
z
" transform="scale(0.015625)"/>
       </defs>
       <use xlink:href="#DejaVuSans-6d"/>
       <use xlink:href="#DejaVuSans-69" transform="translate(97.412109 0)"/>
       <use xlink:href="#DejaVuSans-6e" transform="translate(125.195312 0)"/>
       <use xlink:href="#DejaVuSans-2d" transform="translate(188.574219 0)"/>
       <use xlink:href="#DejaVuSans-63" transform="translate(224.658203 0)"/>
       <use xlink:href="#DejaVuSans-6f" transform="translate(279.638672 0)"/>
       <use xlink:href="#DejaVuSans-73" transform="translate(340.820312 0)"/>
       <use xlink:href="#DejaVuSans-74" transform="translate(392.919922 0)"/>
      </g>
     </g>
    </g>
   </g>
   <g id="matplotlib.axis_2">
    <g id="ytick_1">
     <g id="line2d_3">
      <path d="M 43.78125 251.92 
L 277.401145 251.92 
" clip-path="url(#p67f3011b0c)" style="fill: none; stroke: #b0b0b0; stroke-opacity: 0.3; stroke-width: 0.8; stroke-linecap: square"/>
     </g>
     <g id="line2d_4">
      <defs>
       <path id="m28bed90c22" d="M 0 0 
L -3.5 0 
" style="stroke: #000000; stroke-width: 0.8"/>
      </defs>
      <g>
       <use xlink:href="#m28bed90c22" x="43.78125" y="251.92" style="stroke: #000000; stroke-width: 0.8"/>
      </g>
     </g>
     <g id="text_3">
      <!-- 0.0 -->
      <g transform="translate(20.878125 255.719219) scale(0.1 -0.1)">
       <defs>
        <path id="DejaVuSans-30" d="M 2034 4250 
Q 1547 4250 1301 3770 
Q 1056 3291 1056 2328 
Q 1056 1369 1301 889 
Q 1547 409 2034 409 
Q 2525 409 2770 889 
Q 3016 1369 3016 2328 
Q 3016 3291 2770 3770 
Q 2525 4250 2034 4250 
z
M 2034 4750 
Q 2819 4750 3233 4129 
Q 3647 3509 3647 2328 
Q 3647 1150 3233 529 
Q 2819 -91 2034 -91 
Q 1250 -91 836 529 
Q 422 1150 422 2328 
Q 422 3509 836 4129 
Q 1250 4750 2034 4750 
z
" transform="scale(0.015625)"/>
        <path id="DejaVuSans-2e" d="M 684 794 
L 1344 794 
L 1344 0 
L 684 0 
L 684 794 
z
" transform="scale(0.015625)"/>
       </defs>
       <use xlink:href="#DejaVuSans-30"/>
       <use xlink:href="#DejaVuSans-2e" transform="translate(63.623047 0)"/>
       <use xlink:href="#DejaVuSans-30" transform="translate(95.410156 0)"/>
      </g>
     </g>
    </g>
    <g id="ytick_2">
     <g id="line2d_5">
      <path d="M 43.78125 216.422409 
L 277.401145 216.422409 
" clip-path="url(#p67f3011b0c)" style="fill: none; stroke: #b0b0b0; stroke-opacity: 0.3; stroke-width: 0.8; stroke-linecap: square"/>
     </g>
     <g id="line2d_6">
      <g>
       <use xlink:href="#m28bed90c22" x="43.78125" y="216.422409" style="stroke: #000000; stroke-width: 0.8"/>
      </g>
     </g>
     <g id="text_4">
      <!-- 0.1 -->
      <g transform="translate(20.878125 220.221627) scale(0.1 -0.1)">
       <defs>
        <path id="DejaVuSans-31" d="M 794 531 
L 1825 531 
L 1825 4091 
L 703 3866 
L 703 4441 
L 1819 4666 
L 2450 4666 
L 2450 531 
L 3481 531 
L 3481 0 
L 794 0 
L 794 531 
z
" transform="scale(0.015625)"/>
       </defs>
       <use xlink:href="#DejaVuSans-30"/>
       <use xlink:href="#DejaVuSans-2e" transform="translate(63.623047 0)"/>
       <use xlink:href="#DejaVuSans-31" transform="translate(95.410156 0)"/>
      </g>
     </g>
    </g>
    <g id="ytick_3">
     <g id="line2d_7">
      <path d="M 43.78125 180.924817 
L 277.401145 180.924817 
" clip-path="url(#p67f3011b0c)" style="fill: none; stroke: #b0b0b0; stroke-opacity: 0.3; stroke-width: 0.8; stroke-linecap: square"/>
     </g>
     <g id="line2d_8">
      <g>
       <use xlink:href="#m28bed90c22" x="43.78125" y="180.924817" style="stroke: #000000; stroke-width: 0.8"/>
      </g>
     </g>
     <g id="text_5">
      <!-- 0.2 -->
      <g transform="translate(20.878125 184.724036) scale(0.1 -0.1)">
       <defs>
        <path id="DejaVuSans-32" d="M 1228 531 
L 3431 531 
L 3431 0 
L 469 0 
L 469 531 
Q 828 903 1448 1529 
Q 2069 2156 2228 2338 
Q 2531 2678 2651 2914 
Q 2772 3150 2772 3378 
Q 2772 3750 2511 3984 
Q 2250 4219 1831 4219 
Q 1534 4219 1204 4116 
Q 875 4013 500 3803 
L 500 4441 
Q 881 4594 1212 4672 
Q 1544 4750 1819 4750 
Q 2544 4750 2975 4387 
Q 3406 4025 3406 3419 
Q 3406 3131 3298 2873 
Q 3191 2616 2906 2266 
Q 2828 2175 2409 1742 
Q 1991 1309 1228 531 
z
" transform="scale(0.015625)"/>
       </defs>
       <use xlink:href="#DejaVuSans-30"/>
       <use xlink:href="#DejaVuSans-2e" transform="translate(63.623047 0)"/>
       <use xlink:href="#DejaVuSans-32" transform="translate(95.410156 0)"/>
      </g>
     </g>
    </g>
    <g id="ytick_4">
     <g id="line2d_9">
      <path d="M 43.78125 145.427226 
L 277.401145 145.427226 
" clip-path="url(#p67f3011b0c)" style="fill: none; stroke: #b0b0b0; stroke-opacity: 0.3; stroke-width: 0.8; stroke-linecap: square"/>
     </g>
     <g id="line2d_10">
      <g>
       <use xlink:href="#m28bed90c22" x="43.78125" y="145.427226" style="stroke: #000000; stroke-width: 0.8"/>
      </g>
     </g>
     <g id="text_6">
      <!-- 0.3 -->
      <g transform="translate(20.878125 149.226445) scale(0.1 -0.1)">
       <defs>
        <path id="DejaVuSans-33" d="M 2597 2516 
Q 3050 2419 3304 2112 
Q 3559 1806 3559 1356 
Q 3559 666 3084 287 
Q 2609 -91 1734 -91 
Q 1441 -91 1130 -33 
Q 819 25 488 141 
L 488 750 
Q 750 597 1062 519 
Q 1375 441 1716 441 
Q 2309 441 2620 675 
Q 2931 909 2931 1356 
Q 2931 1769 2642 2001 
Q 2353 2234 1838 2234 
L 1294 2234 
L 1294 2753 
L 1863 2753 
Q 2328 2753 2575 2939 
Q 2822 3125 2822 3475 
Q 2822 3834 2567 4026 
Q 2313 4219 1838 4219 
Q 1578 4219 1281 4162 
Q 984 4106 628 3988 
L 628 4550 
Q 988 4650 1302 4700 
Q 1616 4750 1894 4750 
Q 2613 4750 3031 4423 
Q 3450 4097 3450 3541 
Q 3450 3153 3228 2886 
Q 3006 2619 2597 2516 
z
" transform="scale(0.015625)"/>
       </defs>
       <use xlink:href="#DejaVuSans-30"/>
       <use xlink:href="#DejaVuSans-2e" transform="translate(63.623047 0)"/>
       <use xlink:href="#DejaVuSans-33" transform="translate(95.410156 0)"/>
      </g>
     </g>
    </g>
    <g id="ytick_5">
     <g id="line2d_11">
      <path d="M 43.78125 109.929634 
L 277.401145 109.929634 
" clip-path="url(#p67f3011b0c)" style="fill: none; stroke: #b0b0b0; stroke-opacity: 0.3; stroke-width: 0.8; stroke-linecap: square"/>
     </g>
     <g id="line2d_12">
      <g>
       <use xlink:href="#m28bed90c22" x="43.78125" y="109.929634" style="stroke: #000000; stroke-width: 0.8"/>
      </g>
     </g>
     <g id="text_7">
      <!-- 0.4 -->
      <g transform="translate(20.878125 113.728853) scale(0.1 -0.1)">
       <defs>
        <path id="DejaVuSans-34" d="M 2419 4116 
L 825 1625 
L 2419 1625 
L 2419 4116 
z
M 2253 4666 
L 3047 4666 
L 3047 1625 
L 3713 1625 
L 3713 1100 
L 3047 1100 
L 3047 0 
L 2419 0 
L 2419 1100 
L 313 1100 
L 313 1709 
L 2253 4666 
z
" transform="scale(0.015625)"/>
       </defs>
       <use xlink:href="#DejaVuSans-30"/>
       <use xlink:href="#DejaVuSans-2e" transform="translate(63.623047 0)"/>
       <use xlink:href="#DejaVuSans-34" transform="translate(95.410156 0)"/>
      </g>
     </g>
    </g>
    <g id="ytick_6">
     <g id="line2d_13">
      <path d="M 43.78125 74.432043 
L 277.401145 74.432043 
" clip-path="url(#p67f3011b0c)" style="fill: none; stroke: #b0b0b0; stroke-opacity: 0.3; stroke-width: 0.8; stroke-linecap: square"/>
     </g>
     <g id="line2d_14">
      <g>
       <use xlink:href="#m28bed90c22" x="43.78125" y="74.432043" style="stroke: #000000; stroke-width: 0.8"/>
      </g>
     </g>
     <g id="text_8">
      <!-- 0.5 -->
      <g transform="translate(20.878125 78.231262) scale(0.1 -0.1)">
       <defs>
        <path id="DejaVuSans-35" d="M 691 4666 
L 3169 4666 
L 3169 4134 
L 1269 4134 
L 1269 2991 
Q 1406 3038 1543 3061 
Q 1681 3084 1819 3084 
Q 2600 3084 3056 2656 
Q 3513 2228 3513 1497 
Q 3513 744 3044 326 
Q 2575 -91 1722 -91 
Q 1428 -91 1123 -41 
Q 819 9 494 109 
L 494 744 
Q 775 591 1075 516 
Q 1375 441 1709 441 
Q 2250 441 2565 725 
Q 2881 1009 2881 1497 
Q 2881 1984 2565 2268 
Q 2250 2553 1709 2553 
Q 1456 2553 1204 2497 
Q 953 2441 691 2322 
L 691 4666 
z
" transform="scale(0.015625)"/>
       </defs>
       <use xlink:href="#DejaVuSans-30"/>
       <use xlink:href="#DejaVuSans-2e" transform="translate(63.623047 0)"/>
       <use xlink:href="#DejaVuSans-35" transform="translate(95.410156 0)"/>
      </g>
     </g>
    </g>
    <g id="text_9">
     <!-- mean cost per run (USD) -->
     <g transform="translate(14.798438 221.60975) rotate(-90) scale(0.1 -0.1)">
      <defs>
       <path id="DejaVuSans-20" transform="scale(0.015625)"/>
       <path id="DejaVuSans-70" d="M 1159 525 
L 1159 -1331 
L 581 -1331 
L 581 3500 
L 1159 3500 
L 1159 2969 
Q 1341 3281 1617 3432 
Q 1894 3584 2278 3584 
Q 2916 3584 3314 3078 
Q 3713 2572 3713 1747 
Q 3713 922 3314 415 
Q 2916 -91 2278 -91 
Q 1894 -91 1617 61 
Q 1341 213 1159 525 
z
M 3116 1747 
Q 3116 2381 2855 2742 
Q 2594 3103 2138 3103 
Q 1681 3103 1420 2742 
Q 1159 2381 1159 1747 
Q 1159 1113 1420 752 
Q 1681 391 2138 391 
Q 2594 391 2855 752 
Q 3116 1113 3116 1747 
z
" transform="scale(0.015625)"/>
       <path id="DejaVuSans-72" d="M 2631 2963 
Q 2534 3019 2420 3045 
Q 2306 3072 2169 3072 
Q 1681 3072 1420 2755 
Q 1159 2438 1159 1844 
L 1159 0 
L 581 0 
L 581 3500 
L 1159 3500 
L 1159 2956 
Q 1341 3275 1631 3429 
Q 1922 3584 2338 3584 
Q 2397 3584 2469 3576 
Q 2541 3569 2628 3553 
L 2631 2963 
z
" transform="scale(0.015625)"/>
       <path id="DejaVuSans-75" d="M 544 1381 
L 544 3500 
L 1119 3500 
L 1119 1403 
Q 1119 906 1312 657 
Q 1506 409 1894 409 
Q 2359 409 2629 706 
Q 2900 1003 2900 1516 
L 2900 3500 
L 3475 3500 
L 3475 0 
L 2900 0 
L 2900 538 
Q 2691 219 2414 64 
Q 2138 -91 1772 -91 
Q 1169 -91 856 284 
Q 544 659 544 1381 
z
M 1991 3584 
L 1991 3584 
z
" transform="scale(0.015625)"/>
       <path id="DejaVuSans-28" d="M 1984 4856 
Q 1566 4138 1362 3434 
Q 1159 2731 1159 2009 
Q 1159 1288 1364 580 
Q 1569 -128 1984 -844 
L 1484 -844 
Q 1016 -109 783 600 
Q 550 1309 550 2009 
Q 550 2706 781 3412 
Q 1013 4119 1484 4856 
L 1984 4856 
z
" transform="scale(0.015625)"/>
       <path id="DejaVuSans-55" d="M 556 4666 
L 1191 4666 
L 1191 1831 
Q 1191 1081 1462 751 
Q 1734 422 2344 422 
Q 2950 422 3222 751 
Q 3494 1081 3494 1831 
L 3494 4666 
L 4128 4666 
L 4128 1753 
Q 4128 841 3676 375 
Q 3225 -91 2344 -91 
Q 1459 -91 1007 375 
Q 556 841 556 1753 
L 556 4666 
z
" transform="scale(0.015625)"/>
       <path id="DejaVuSans-53" d="M 3425 4513 
L 3425 3897 
Q 3066 4069 2747 4153 
Q 2428 4238 2131 4238 
Q 1616 4238 1336 4038 
Q 1056 3838 1056 3469 
Q 1056 3159 1242 3001 
Q 1428 2844 1947 2747 
L 2328 2669 
Q 3034 2534 3370 2195 
Q 3706 1856 3706 1288 
Q 3706 609 3251 259 
Q 2797 -91 1919 -91 
Q 1588 -91 1214 -16 
Q 841 59 441 206 
L 441 856 
Q 825 641 1194 531 
Q 1563 422 1919 422 
Q 2459 422 2753 634 
Q 3047 847 3047 1241 
Q 3047 1584 2836 1778 
Q 2625 1972 2144 2069 
L 1759 2144 
Q 1053 2284 737 2584 
Q 422 2884 422 3419 
Q 422 4038 858 4394 
Q 1294 4750 2059 4750 
Q 2388 4750 2728 4690 
Q 3069 4631 3425 4513 
z
" transform="scale(0.015625)"/>
       <path id="DejaVuSans-44" d="M 1259 4147 
L 1259 519 
L 2022 519 
Q 2988 519 3436 956 
Q 3884 1394 3884 2338 
Q 3884 3275 3436 3711 
Q 2988 4147 2022 4147 
L 1259 4147 
z
M 628 4666 
L 1925 4666 
Q 3281 4666 3915 4102 
Q 4550 3538 4550 2338 
Q 4550 1131 3912 565 
Q 3275 0 1925 0 
L 628 0 
L 628 4666 
z
" transform="scale(0.015625)"/>
       <path id="DejaVuSans-29" d="M 513 4856 
L 1013 4856 
Q 1481 4119 1714 3412 
Q 1947 2706 1947 2009 
Q 1947 1309 1714 600 
Q 1481 -109 1013 -844 
L 513 -844 
Q 928 -128 1133 580 
Q 1338 1288 1338 2009 
Q 1338 2731 1133 3434 
Q 928 4138 513 4856 
z
" transform="scale(0.015625)"/>
      </defs>
      <use xlink:href="#DejaVuSans-6d"/>
      <use xlink:href="#DejaVuSans-65" transform="translate(97.412109 0)"/>
      <use xlink:href="#DejaVuSans-61" transform="translate(158.935547 0)"/>
      <use xlink:href="#DejaVuSans-6e" transform="translate(220.214844 0)"/>
      <use xlink:href="#DejaVuSans-20" transform="translate(283.59375 0)"/>
      <use xlink:href="#DejaVuSans-63" transform="translate(315.380859 0)"/>
      <use xlink:href="#DejaVuSans-6f" transform="translate(370.361328 0)"/>
      <use xlink:href="#DejaVuSans-73" transform="translate(431.542969 0)"/>
      <use xlink:href="#DejaVuSans-74" transform="translate(483.642578 0)"/>
      <use xlink:href="#DejaVuSans-20" transform="translate(522.851562 0)"/>
      <use xlink:href="#DejaVuSans-70" transform="translate(554.638672 0)"/>
      <use xlink:href="#DejaVuSans-65" transform="translate(618.115234 0)"/>
      <use xlink:href="#DejaVuSans-72" transform="translate(679.638672 0)"/>
      <use xlink:href="#DejaVuSans-20" transform="translate(720.751953 0)"/>
      <use xlink:href="#DejaVuSans-72" transform="translate(752.539062 0)"/>
      <use xlink:href="#DejaVuSans-75" transform="translate(793.652344 0)"/>
      <use xlink:href="#DejaVuSans-6e" transform="translate(857.03125 0)"/>
      <use xlink:href="#DejaVuSans-20" transform="translate(920.410156 0)"/>
      <use xlink:href="#DejaVuSans-28" transform="translate(952.197266 0)"/>
      <use xlink:href="#DejaVuSans-55" transform="translate(991.210938 0)"/>
      <use xlink:href="#DejaVuSans-53" transform="translate(1064.404297 0)"/>
      <use xlink:href="#DejaVuSans-44" transform="translate(1127.880859 0)"/>
      <use xlink:href="#DejaVuSans-29" transform="translate(1204.882812 0)"/>
     </g>
    </g>
   </g>
   <g id="LineCollection_1">
    <path d="M 107.495767 237.510228 
L 107.495767 75.721905 
" clip-path="url(#p67f3011b0c)" style="fill: none; stroke: #000000; stroke-width: 1.2"/>
   </g>
   <g id="line2d_15">
    <defs>
     <path id="mbe8554cc25" d="M 5 0 
L -5 -0 
" style="stroke: #000000"/>
    </defs>
    <g clip-path="url(#p67f3011b0c)">
     <use xlink:href="#mbe8554cc25" x="107.495767" y="237.510228" style="stroke: #000000"/>
    </g>
   </g>
   <g id="line2d_16">
    <g clip-path="url(#p67f3011b0c)">
     <use xlink:href="#mbe8554cc25" x="107.495767" y="75.721905" style="stroke: #000000"/>
    </g>
   </g>
   <g id="LineCollection_2">
    <path d="M 213.686628 250.606589 
L 213.686628 250.606589 
" clip-path="url(#p67f3011b0c)" style="fill: none; stroke: #000000; stroke-width: 1.2"/>
   </g>
   <g id="line2d_17">
    <g clip-path="url(#p67f3011b0c)">
     <use xlink:href="#mbe8554cc25" x="213.686628" y="250.606589" style="stroke: #000000"/>
    </g>
   </g>
   <g id="line2d_18">
    <g clip-path="url(#p67f3011b0c)">
     <use xlink:href="#mbe8554cc25" x="213.686628" y="250.606589" style="stroke: #000000"/>
    </g>
   </g>
   <g id="patch_5">
    <path d="M 43.78125 251.92 
L 43.78125 66.912 
" style="fill: none; stroke: #000000; stroke-width: 0.8; stroke-linejoin: miter; stroke-linecap: square"/>
   </g>
   <g id="patch_6">
    <path d="M 277.401145 251.92 
L 277.401145 66.912 
" style="fill: none; stroke: #000000; stroke-width: 0.8; stroke-linejoin: miter; stroke-linecap: square"/>
   </g>
   <g id="patch_7">
    <path d="M 43.78125 251.92 
L 277.401145 251.92 
" style="fill: none; stroke: #000000; stroke-width: 0.8; stroke-linejoin: miter; stroke-linecap: square"/>
   </g>
   <g id="patch_8">
    <path d="M 43.78125 66.912 
L 277.401145 66.912 
" style="fill: none; stroke: #000000; stroke-width: 0.8; stroke-linejoin: miter; stroke-linecap: square"/>
   </g>
   <g id="text_10">
    <!-- $0.268 -->
    <g transform="translate(90.131392 73.850186) scale(0.09 -0.09)">
     <defs>
      <path id="DejaVuSans-Bold-24" d="M 2484 -941 
L 1978 -941 
L 1975 0 
Q 1584 16 1218 87 
Q 853 159 506 288 
L 506 1106 
Q 866 922 1233 823 
Q 1600 725 1978 713 
L 1978 1684 
L 1875 1703 
Q 1128 1834 814 2115 
Q 500 2397 500 2925 
Q 500 3484 883 3798 
Q 1266 4113 1975 4141 
L 1978 4863 
L 2484 4863 
L 2484 4153 
Q 2797 4128 3109 4075 
Q 3422 4022 3738 3938 
L 3738 3144 
Q 3425 3275 3112 3348 
Q 2800 3422 2484 3438 
L 2484 2541 
L 2584 2522 
Q 3378 2397 3698 2105 
Q 4019 1813 4019 1241 
Q 4019 666 3637 358 
Q 3256 50 2484 6 
L 2484 -941 
z
M 1978 2613 
L 1978 3428 
Q 1756 3416 1623 3308 
Q 1491 3200 1491 3034 
Q 1491 2850 1612 2745 
Q 1734 2641 1978 2613 
z
M 2484 1594 
L 2484 725 
Q 2756 728 2892 831 
Q 3028 934 3028 1141 
Q 3028 1353 2903 1458 
Q 2778 1563 2484 1594 
z
" transform="scale(0.015625)"/>
      <path id="DejaVuSans-Bold-30" d="M 2944 2338 
Q 2944 3213 2780 3570 
Q 2616 3928 2228 3928 
Q 1841 3928 1675 3570 
Q 1509 3213 1509 2338 
Q 1509 1453 1675 1090 
Q 1841 728 2228 728 
Q 2613 728 2778 1090 
Q 2944 1453 2944 2338 
z
M 4147 2328 
Q 4147 1169 3647 539 
Q 3147 -91 2228 -91 
Q 1306 -91 806 539 
Q 306 1169 306 2328 
Q 306 3491 806 4120 
Q 1306 4750 2228 4750 
Q 3147 4750 3647 4120 
Q 4147 3491 4147 2328 
z
" transform="scale(0.015625)"/>
      <path id="DejaVuSans-Bold-2e" d="M 653 1209 
L 1778 1209 
L 1778 0 
L 653 0 
L 653 1209 
z
" transform="scale(0.015625)"/>
      <path id="DejaVuSans-Bold-32" d="M 1844 884 
L 3897 884 
L 3897 0 
L 506 0 
L 506 884 
L 2209 2388 
Q 2438 2594 2547 2791 
Q 2656 2988 2656 3200 
Q 2656 3528 2436 3728 
Q 2216 3928 1850 3928 
Q 1569 3928 1234 3808 
Q 900 3688 519 3450 
L 519 4475 
Q 925 4609 1322 4679 
Q 1719 4750 2100 4750 
Q 2938 4750 3402 4381 
Q 3866 4013 3866 3353 
Q 3866 2972 3669 2642 
Q 3472 2313 2841 1759 
L 1844 884 
z
" transform="scale(0.015625)"/>
      <path id="DejaVuSans-Bold-36" d="M 2316 2303 
Q 2000 2303 1842 2098 
Q 1684 1894 1684 1484 
Q 1684 1075 1842 870 
Q 2000 666 2316 666 
Q 2634 666 2792 870 
Q 2950 1075 2950 1484 
Q 2950 1894 2792 2098 
Q 2634 2303 2316 2303 
z
M 3803 4544 
L 3803 3681 
Q 3506 3822 3243 3889 
Q 2981 3956 2731 3956 
Q 2194 3956 1894 3657 
Q 1594 3359 1544 2772 
Q 1750 2925 1990 3001 
Q 2231 3078 2516 3078 
Q 3231 3078 3670 2659 
Q 4109 2241 4109 1563 
Q 4109 813 3618 361 
Q 3128 -91 2303 -91 
Q 1394 -91 895 523 
Q 397 1138 397 2266 
Q 397 3422 980 4083 
Q 1563 4744 2578 4744 
Q 2900 4744 3203 4694 
Q 3506 4644 3803 4544 
z
" transform="scale(0.015625)"/>
      <path id="DejaVuSans-Bold-38" d="M 2228 2088 
Q 1891 2088 1709 1903 
Q 1528 1719 1528 1375 
Q 1528 1031 1709 848 
Q 1891 666 2228 666 
Q 2563 666 2741 848 
Q 2919 1031 2919 1375 
Q 2919 1722 2741 1905 
Q 2563 2088 2228 2088 
z
M 1350 2484 
Q 925 2613 709 2878 
Q 494 3144 494 3541 
Q 494 4131 934 4440 
Q 1375 4750 2228 4750 
Q 3075 4750 3515 4442 
Q 3956 4134 3956 3541 
Q 3956 3144 3739 2878 
Q 3522 2613 3097 2484 
Q 3572 2353 3814 2058 
Q 4056 1763 4056 1313 
Q 4056 619 3595 264 
Q 3134 -91 2228 -91 
Q 1319 -91 855 264 
Q 391 619 391 1313 
Q 391 1763 633 2058 
Q 875 2353 1350 2484 
z
M 1631 3419 
Q 1631 3141 1786 2991 
Q 1941 2841 2228 2841 
Q 2509 2841 2662 2991 
Q 2816 3141 2816 3419 
Q 2816 3697 2662 3845 
Q 2509 3994 2228 3994 
Q 1941 3994 1786 3844 
Q 1631 3694 1631 3419 
z
" transform="scale(0.015625)"/>
     </defs>
     <use xlink:href="#DejaVuSans-Bold-24"/>
     <use xlink:href="#DejaVuSans-Bold-30" transform="translate(69.580078 0)"/>
     <use xlink:href="#DejaVuSans-Bold-2e" transform="translate(139.160156 0)"/>
     <use xlink:href="#DejaVuSans-Bold-32" transform="translate(177.148438 0)"/>
     <use xlink:href="#DejaVuSans-Bold-36" transform="translate(246.728516 0)"/>
     <use xlink:href="#DejaVuSans-Bold-38" transform="translate(316.308594 0)"/>
    </g>
   </g>
   <g id="text_11">
    <!-- dm1×2 -->
    <g style="fill: #6c5b9e" transform="translate(96.337642 282.479062) scale(0.06 -0.06)">
     <defs>
      <path id="DejaVuSans-64" d="M 2906 2969 
L 2906 4863 
L 3481 4863 
L 3481 0 
L 2906 0 
L 2906 525 
Q 2725 213 2448 61 
Q 2172 -91 1784 -91 
Q 1150 -91 751 415 
Q 353 922 353 1747 
Q 353 2572 751 3078 
Q 1150 3584 1784 3584 
Q 2172 3584 2448 3432 
Q 2725 3281 2906 2969 
z
M 947 1747 
Q 947 1113 1208 752 
Q 1469 391 1925 391 
Q 2381 391 2643 752 
Q 2906 1113 2906 1747 
Q 2906 2381 2643 2742 
Q 2381 3103 1925 3103 
Q 1469 3103 1208 2742 
Q 947 2381 947 1747 
z
" transform="scale(0.015625)"/>
      <path id="DejaVuSans-d7" d="M 4488 3438 
L 3059 2003 
L 4488 575 
L 4116 197 
L 2681 1631 
L 1247 197 
L 878 575 
L 2303 2003 
L 878 3438 
L 1247 3816 
L 2681 2381 
L 4116 3816 
L 4488 3438 
z
" transform="scale(0.015625)"/>
     </defs>
     <use xlink:href="#DejaVuSans-64"/>
     <use xlink:href="#DejaVuSans-6d" transform="translate(63.476562 0)"/>
     <use xlink:href="#DejaVuSans-31" transform="translate(160.888672 0)"/>
     <use xlink:href="#DejaVuSans-d7" transform="translate(224.511719 0)"/>
     <use xlink:href="#DejaVuSans-32" transform="translate(308.300781 0)"/>
    </g>
    <!-- iqm_emerald×3 -->
    <g style="fill: #6c5b9e" transform="translate(83.489204 289.19775) scale(0.06 -0.06)">
     <defs>
      <path id="DejaVuSans-71" d="M 947 1747 
Q 947 1113 1208 752 
Q 1469 391 1925 391 
Q 2381 391 2643 752 
Q 2906 1113 2906 1747 
Q 2906 2381 2643 2742 
Q 2381 3103 1925 3103 
Q 1469 3103 1208 2742 
Q 947 2381 947 1747 
z
M 2906 525 
Q 2725 213 2448 61 
Q 2172 -91 1784 -91 
Q 1150 -91 751 415 
Q 353 922 353 1747 
Q 353 2572 751 3078 
Q 1150 3584 1784 3584 
Q 2172 3584 2448 3432 
Q 2725 3281 2906 2969 
L 2906 3500 
L 3481 3500 
L 3481 -1331 
L 2906 -1331 
L 2906 525 
z
" transform="scale(0.015625)"/>
      <path id="DejaVuSans-5f" d="M 3263 -1063 
L 3263 -1509 
L -63 -1509 
L -63 -1063 
L 3263 -1063 
z
" transform="scale(0.015625)"/>
     </defs>
     <use xlink:href="#DejaVuSans-69"/>
     <use xlink:href="#DejaVuSans-71" transform="translate(27.783203 0)"/>
     <use xlink:href="#DejaVuSans-6d" transform="translate(91.259766 0)"/>
     <use xlink:href="#DejaVuSans-5f" transform="translate(188.671875 0)"/>
     <use xlink:href="#DejaVuSans-65" transform="translate(238.671875 0)"/>
     <use xlink:href="#DejaVuSans-6d" transform="translate(300.195312 0)"/>
     <use xlink:href="#DejaVuSans-65" transform="translate(397.607422 0)"/>
     <use xlink:href="#DejaVuSans-72" transform="translate(459.130859 0)"/>
     <use xlink:href="#DejaVuSans-61" transform="translate(500.244141 0)"/>
     <use xlink:href="#DejaVuSans-6c" transform="translate(561.523438 0)"/>
     <use xlink:href="#DejaVuSans-64" transform="translate(589.306641 0)"/>
     <use xlink:href="#DejaVuSans-d7" transform="translate(652.783203 0)"/>
     <use xlink:href="#DejaVuSans-33" transform="translate(736.572266 0)"/>
    </g>
    <!-- iqm_garnet×3 -->
    <g style="fill: #6c5b9e" transform="translate(86.065923 296.083312) scale(0.06 -0.06)">
     <defs>
      <path id="DejaVuSans-67" d="M 2906 1791 
Q 2906 2416 2648 2759 
Q 2391 3103 1925 3103 
Q 1463 3103 1205 2759 
Q 947 2416 947 1791 
Q 947 1169 1205 825 
Q 1463 481 1925 481 
Q 2391 481 2648 825 
Q 2906 1169 2906 1791 
z
M 3481 434 
Q 3481 -459 3084 -895 
Q 2688 -1331 1869 -1331 
Q 1566 -1331 1297 -1286 
Q 1028 -1241 775 -1147 
L 775 -588 
Q 1028 -725 1275 -790 
Q 1522 -856 1778 -856 
Q 2344 -856 2625 -561 
Q 2906 -266 2906 331 
L 2906 616 
Q 2728 306 2450 153 
Q 2172 0 1784 0 
Q 1141 0 747 490 
Q 353 981 353 1791 
Q 353 2603 747 3093 
Q 1141 3584 1784 3584 
Q 2172 3584 2450 3431 
Q 2728 3278 2906 2969 
L 2906 3500 
L 3481 3500 
L 3481 434 
z
" transform="scale(0.015625)"/>
     </defs>
     <use xlink:href="#DejaVuSans-69"/>
     <use xlink:href="#DejaVuSans-71" transform="translate(27.783203 0)"/>
     <use xlink:href="#DejaVuSans-6d" transform="translate(91.259766 0)"/>
     <use xlink:href="#DejaVuSans-5f" transform="translate(188.671875 0)"/>
     <use xlink:href="#DejaVuSans-67" transform="translate(238.671875 0)"/>
     <use xlink:href="#DejaVuSans-61" transform="translate(302.148438 0)"/>
     <use xlink:href="#DejaVuSans-72" transform="translate(363.427734 0)"/>
     <use xlink:href="#DejaVuSans-6e" transform="translate(402.791016 0)"/>
     <use xlink:href="#DejaVuSans-65" transform="translate(466.169922 0)"/>
     <use xlink:href="#DejaVuSans-74" transform="translate(527.693359 0)"/>
     <use xlink:href="#DejaVuSans-d7" transform="translate(566.902344 0)"/>
     <use xlink:href="#DejaVuSans-33" transform="translate(650.691406 0)"/>
    </g>
    <!-- sv1×2 -->
    <g style="fill: #6c5b9e" transform="translate(97.825923 302.968875) scale(0.06 -0.06)">
     <defs>
      <path id="DejaVuSans-76" d="M 191 3500 
L 800 3500 
L 1894 563 
L 2988 3500 
L 3597 3500 
L 2284 0 
L 1503 0 
L 191 3500 
z
" transform="scale(0.015625)"/>
     </defs>
     <use xlink:href="#DejaVuSans-73"/>
     <use xlink:href="#DejaVuSans-76" transform="translate(52.099609 0)"/>
     <use xlink:href="#DejaVuSans-31" transform="translate(111.279297 0)"/>
     <use xlink:href="#DejaVuSans-d7" transform="translate(174.902344 0)"/>
     <use xlink:href="#DejaVuSans-32" transform="translate(258.691406 0)"/>
    </g>
   </g>
   <g id="text_12">
    <!-- $0.004 -->
    <g transform="translate(196.322253 248.73487) scale(0.09 -0.09)">
     <defs>
      <path id="DejaVuSans-Bold-34" d="M 2356 3675 
L 1038 1722 
L 2356 1722 
L 2356 3675 
z
M 2156 4666 
L 3494 4666 
L 3494 1722 
L 4159 1722 
L 4159 850 
L 3494 850 
L 3494 0 
L 2356 0 
L 2356 850 
L 288 850 
L 288 1881 
L 2156 4666 
z
" transform="scale(0.015625)"/>
     </defs>
     <use xlink:href="#DejaVuSans-Bold-24"/>
     <use xlink:href="#DejaVuSans-Bold-30" transform="translate(69.580078 0)"/>
     <use xlink:href="#DejaVuSans-Bold-2e" transform="translate(139.160156 0)"/>
     <use xlink:href="#DejaVuSans-Bold-30" transform="translate(177.148438 0)"/>
     <use xlink:href="#DejaVuSans-Bold-30" transform="translate(246.728516 0)"/>
     <use xlink:href="#DejaVuSans-Bold-34" transform="translate(316.308594 0)"/>
    </g>
   </g>
   <g id="text_13">
    <!-- dm1×10 -->
    <g style="fill: #0e7c86" transform="translate(200.619753 282.479062) scale(0.06 -0.06)">
     <use xlink:href="#DejaVuSans-64"/>
     <use xlink:href="#DejaVuSans-6d" transform="translate(63.476562 0)"/>
     <use xlink:href="#DejaVuSans-31" transform="translate(160.888672 0)"/>
     <use xlink:href="#DejaVuSans-d7" transform="translate(224.511719 0)"/>
     <use xlink:href="#DejaVuSans-31" transform="translate(308.300781 0)"/>
     <use xlink:href="#DejaVuSans-30" transform="translate(371.923828 0)"/>
    </g>
   </g>
   <g id="text_14">
    <!-- Mean cost (± stdev) -->
    <g transform="translate(104.897682 60.912) scale(0.11 -0.11)">
     <defs>
      <path id="DejaVuSans-4d" d="M 628 4666 
L 1569 4666 
L 2759 1491 
L 3956 4666 
L 4897 4666 
L 4897 0 
L 4281 0 
L 4281 4097 
L 3078 897 
L 2444 897 
L 1241 4097 
L 1241 0 
L 628 0 
L 628 4666 
z
" transform="scale(0.015625)"/>
      <path id="DejaVuSans-b1" d="M 2944 4013 
L 2944 2803 
L 4684 2803 
L 4684 2272 
L 2944 2272 
L 2944 1063 
L 2419 1063 
L 2419 2272 
L 678 2272 
L 678 2803 
L 2419 2803 
L 2419 4013 
L 2944 4013 
z
M 678 531 
L 4684 531 
L 4684 0 
L 678 0 
L 678 531 
z
" transform="scale(0.015625)"/>
     </defs>
     <use xlink:href="#DejaVuSans-4d"/>
     <use xlink:href="#DejaVuSans-65" transform="translate(86.279297 0)"/>
     <use xlink:href="#DejaVuSans-61" transform="translate(147.802734 0)"/>
     <use xlink:href="#DejaVuSans-6e" transform="translate(209.082031 0)"/>
     <use xlink:href="#DejaVuSans-20" transform="translate(272.460938 0)"/>
     <use xlink:href="#DejaVuSans-63" transform="translate(304.248047 0)"/>
     <use xlink:href="#DejaVuSans-6f" transform="translate(359.228516 0)"/>
     <use xlink:href="#DejaVuSans-73" transform="translate(420.410156 0)"/>
     <use xlink:href="#DejaVuSans-74" transform="translate(472.509766 0)"/>
     <use xlink:href="#DejaVuSans-20" transform="translate(511.71875 0)"/>
     <use xlink:href="#DejaVuSans-28" transform="translate(543.505859 0)"/>
     <use xlink:href="#DejaVuSans-b1" transform="translate(582.519531 0)"/>
     <use xlink:href="#DejaVuSans-20" transform="translate(666.308594 0)"/>
     <use xlink:href="#DejaVuSans-73" transform="translate(698.095703 0)"/>
     <use xlink:href="#DejaVuSans-74" transform="translate(750.195312 0)"/>
     <use xlink:href="#DejaVuSans-64" transform="translate(789.404297 0)"/>
     <use xlink:href="#DejaVuSans-65" transform="translate(852.880859 0)"/>
     <use xlink:href="#DejaVuSans-76" transform="translate(914.404297 0)"/>
     <use xlink:href="#DejaVuSans-29" transform="translate(973.583984 0)"/>
    </g>
   </g>
  </g>
  <g id="axes_2">
   <g id="patch_9">
    <path d="M 327.551355 251.92 
L 561.17125 251.92 
L 561.17125 66.912 
L 327.551355 66.912 
z
" style="fill: #ffffff"/>
   </g>
   <g id="matplotlib.axis_3">
    <g id="xtick_3">
     <g id="line2d_19">
      <g>
       <use xlink:href="#m184bc0971f" x="391.265872" y="251.92" style="stroke: #000000; stroke-width: 0.8"/>
      </g>
     </g>
     <g id="text_15">
      <!-- baseline -->
      <g transform="translate(370.322903 266.518438) scale(0.1 -0.1)">
       <use xlink:href="#DejaVuSans-62"/>
       <use xlink:href="#DejaVuSans-61" transform="translate(63.476562 0)"/>
       <use xlink:href="#DejaVuSans-73" transform="translate(124.755859 0)"/>
       <use xlink:href="#DejaVuSans-65" transform="translate(176.855469 0)"/>
       <use xlink:href="#DejaVuSans-6c" transform="translate(238.378906 0)"/>
       <use xlink:href="#DejaVuSans-69" transform="translate(266.162109 0)"/>
       <use xlink:href="#DejaVuSans-6e" transform="translate(293.945312 0)"/>
       <use xlink:href="#DejaVuSans-65" transform="translate(357.324219 0)"/>
      </g>
     </g>
    </g>
    <g id="xtick_4">
     <g id="line2d_20">
      <g>
       <use xlink:href="#m184bc0971f" x="497.456733" y="251.92" style="stroke: #000000; stroke-width: 0.8"/>
      </g>
     </g>
     <g id="text_16">
      <!-- min-queue -->
      <g transform="translate(470.559858 266.518438) scale(0.1 -0.1)">
       <use xlink:href="#DejaVuSans-6d"/>
       <use xlink:href="#DejaVuSans-69" transform="translate(97.412109 0)"/>
       <use xlink:href="#DejaVuSans-6e" transform="translate(125.195312 0)"/>
       <use xlink:href="#DejaVuSans-2d" transform="translate(188.574219 0)"/>
       <use xlink:href="#DejaVuSans-71" transform="translate(224.658203 0)"/>
       <use xlink:href="#DejaVuSans-75" transform="translate(288.134766 0)"/>
       <use xlink:href="#DejaVuSans-65" transform="translate(351.513672 0)"/>
       <use xlink:href="#DejaVuSans-75" transform="translate(413.037109 0)"/>
       <use xlink:href="#DejaVuSans-65" transform="translate(476.416016 0)"/>
      </g>
     </g>
    </g>
   </g>
   <g id="matplotlib.axis_4">
    <g id="ytick_7">
     <g id="line2d_21">
      <path d="M 327.551355 217.106049 
L 561.17125 217.106049 
" clip-path="url(#pdca9f7abb6)" style="fill: none; stroke: #b0b0b0; stroke-opacity: 0.3; stroke-width: 0.8; stroke-linecap: square"/>
     </g>
     <g id="line2d_22">
      <g>
       <use xlink:href="#m28bed90c22" x="327.551355" y="217.106049" style="stroke: #000000; stroke-width: 0.8"/>
      </g>
     </g>
     <g id="text_17">
      <!-- $\mathdefault{10^{2}}$ -->
      <g transform="translate(302.951355 220.905268) scale(0.1 -0.1)">
       <use xlink:href="#DejaVuSans-31" transform="translate(0 0.765625)"/>
       <use xlink:href="#DejaVuSans-30" transform="translate(63.623047 0.765625)"/>
       <use xlink:href="#DejaVuSans-32" transform="translate(128.203125 39.046875) scale(0.7)"/>
      </g>
     </g>
    </g>
    <g id="ytick_8">
     <g id="line2d_23">
      <path d="M 327.551355 150.535461 
L 561.17125 150.535461 
" clip-path="url(#pdca9f7abb6)" style="fill: none; stroke: #b0b0b0; stroke-opacity: 0.3; stroke-width: 0.8; stroke-linecap: square"/>
     </g>
     <g id="line2d_24">
      <g>
       <use xlink:href="#m28bed90c22" x="327.551355" y="150.535461" style="stroke: #000000; stroke-width: 0.8"/>
      </g>
     </g>
     <g id="text_18">
      <!-- $\mathdefault{10^{3}}$ -->
      <g transform="translate(302.951355 154.334679) scale(0.1 -0.1)">
       <use xlink:href="#DejaVuSans-31" transform="translate(0 0.765625)"/>
       <use xlink:href="#DejaVuSans-30" transform="translate(63.623047 0.765625)"/>
       <use xlink:href="#DejaVuSans-33" transform="translate(128.203125 39.046875) scale(0.7)"/>
      </g>
     </g>
    </g>
    <g id="ytick_9">
     <g id="line2d_25">
      <path d="M 327.551355 83.964873 
L 561.17125 83.964873 
" clip-path="url(#pdca9f7abb6)" style="fill: none; stroke: #b0b0b0; stroke-opacity: 0.3; stroke-width: 0.8; stroke-linecap: square"/>
     </g>
     <g id="line2d_26">
      <g>
       <use xlink:href="#m28bed90c22" x="327.551355" y="83.964873" style="stroke: #000000; stroke-width: 0.8"/>
      </g>
     </g>
     <g id="text_19">
      <!-- $\mathdefault{10^{4}}$ -->
      <g transform="translate(302.951355 87.764091) scale(0.1 -0.1)">
       <use xlink:href="#DejaVuSans-31" transform="translate(0 0.684375)"/>
       <use xlink:href="#DejaVuSans-30" transform="translate(63.623047 0.684375)"/>
       <use xlink:href="#DejaVuSans-34" transform="translate(128.203125 38.965625) scale(0.7)"/>
      </g>
     </g>
    </g>
    <g id="ytick_10">
     <g id="line2d_27">
      <defs>
       <path id="m9b386c76cf" d="M 0 0 
L -2 0 
" style="stroke: #000000; stroke-width: 0.6"/>
      </defs>
      <g>
       <use xlink:href="#m9b386c76cf" x="327.551355" y="251.914395" style="stroke: #000000; stroke-width: 0.6"/>
      </g>
     </g>
    </g>
    <g id="ytick_11">
     <g id="line2d_28">
      <g>
       <use xlink:href="#m9b386c76cf" x="327.551355" y="243.597149" style="stroke: #000000; stroke-width: 0.6"/>
      </g>
     </g>
    </g>
    <g id="ytick_12">
     <g id="line2d_29">
      <g>
       <use xlink:href="#m9b386c76cf" x="327.551355" y="237.145793" style="stroke: #000000; stroke-width: 0.6"/>
      </g>
     </g>
    </g>
    <g id="ytick_13">
     <g id="line2d_30">
      <g>
       <use xlink:href="#m9b386c76cf" x="327.551355" y="231.874651" style="stroke: #000000; stroke-width: 0.6"/>
      </g>
     </g>
    </g>
    <g id="ytick_14">
     <g id="line2d_31">
      <g>
       <use xlink:href="#m9b386c76cf" x="327.551355" y="227.417963" style="stroke: #000000; stroke-width: 0.6"/>
      </g>
     </g>
    </g>
    <g id="ytick_15">
     <g id="line2d_32">
      <g>
       <use xlink:href="#m9b386c76cf" x="327.551355" y="223.557405" style="stroke: #000000; stroke-width: 0.6"/>
      </g>
     </g>
    </g>
    <g id="ytick_16">
     <g id="line2d_33">
      <g>
       <use xlink:href="#m9b386c76cf" x="327.551355" y="220.152152" style="stroke: #000000; stroke-width: 0.6"/>
      </g>
     </g>
    </g>
    <g id="ytick_17">
     <g id="line2d_34">
      <g>
       <use xlink:href="#m9b386c76cf" x="327.551355" y="197.066305" style="stroke: #000000; stroke-width: 0.6"/>
      </g>
     </g>
    </g>
    <g id="ytick_18">
     <g id="line2d_35">
      <g>
       <use xlink:href="#m9b386c76cf" x="327.551355" y="185.343806" style="stroke: #000000; stroke-width: 0.6"/>
      </g>
     </g>
    </g>
    <g id="ytick_19">
     <g id="line2d_36">
      <g>
       <use xlink:href="#m9b386c76cf" x="327.551355" y="177.026561" style="stroke: #000000; stroke-width: 0.6"/>
      </g>
     </g>
    </g>
    <g id="ytick_20">
     <g id="line2d_37">
      <g>
       <use xlink:href="#m9b386c76cf" x="327.551355" y="170.575205" style="stroke: #000000; stroke-width: 0.6"/>
      </g>
     </g>
    </g>
    <g id="ytick_21">
     <g id="line2d_38">
      <g>
       <use xlink:href="#m9b386c76cf" x="327.551355" y="165.304062" style="stroke: #000000; stroke-width: 0.6"/>
      </g>
     </g>
    </g>
    <g id="ytick_22">
     <g id="line2d_39">
      <g>
       <use xlink:href="#m9b386c76cf" x="327.551355" y="160.847375" style="stroke: #000000; stroke-width: 0.6"/>
      </g>
     </g>
    </g>
    <g id="ytick_23">
     <g id="line2d_40">
      <g>
       <use xlink:href="#m9b386c76cf" x="327.551355" y="156.986817" style="stroke: #000000; stroke-width: 0.6"/>
      </g>
     </g>
    </g>
    <g id="ytick_24">
     <g id="line2d_41">
      <g>
       <use xlink:href="#m9b386c76cf" x="327.551355" y="153.581564" style="stroke: #000000; stroke-width: 0.6"/>
      </g>
     </g>
    </g>
    <g id="ytick_25">
     <g id="line2d_42">
      <g>
       <use xlink:href="#m9b386c76cf" x="327.551355" y="130.495717" style="stroke: #000000; stroke-width: 0.6"/>
      </g>
     </g>
    </g>
    <g id="ytick_26">
     <g id="line2d_43">
      <g>
       <use xlink:href="#m9b386c76cf" x="327.551355" y="118.773218" style="stroke: #000000; stroke-width: 0.6"/>
      </g>
     </g>
    </g>
    <g id="ytick_27">
     <g id="line2d_44">
      <g>
       <use xlink:href="#m9b386c76cf" x="327.551355" y="110.455973" style="stroke: #000000; stroke-width: 0.6"/>
      </g>
     </g>
    </g>
    <g id="ytick_28">
     <g id="line2d_45">
      <g>
       <use xlink:href="#m9b386c76cf" x="327.551355" y="104.004616" style="stroke: #000000; stroke-width: 0.6"/>
      </g>
     </g>
    </g>
    <g id="ytick_29">
     <g id="line2d_46">
      <g>
       <use xlink:href="#m9b386c76cf" x="327.551355" y="98.733474" style="stroke: #000000; stroke-width: 0.6"/>
      </g>
     </g>
    </g>
    <g id="ytick_30">
     <g id="line2d_47">
      <g>
       <use xlink:href="#m9b386c76cf" x="327.551355" y="94.276787" style="stroke: #000000; stroke-width: 0.6"/>
      </g>
     </g>
    </g>
    <g id="ytick_31">
     <g id="line2d_48">
      <g>
       <use xlink:href="#m9b386c76cf" x="327.551355" y="90.416229" style="stroke: #000000; stroke-width: 0.6"/>
      </g>
     </g>
    </g>
    <g id="ytick_32">
     <g id="line2d_49">
      <g>
       <use xlink:href="#m9b386c76cf" x="327.551355" y="87.010976" style="stroke: #000000; stroke-width: 0.6"/>
      </g>
     </g>
    </g>
    <g id="text_20">
     <!-- time to result (s, log) -->
     <g transform="translate(296.871667 211.948031) rotate(-90) scale(0.1 -0.1)">
      <defs>
       <path id="DejaVuSans-2c" d="M 750 794 
L 1409 794 
L 1409 256 
L 897 -744 
L 494 -744 
L 750 256 
L 750 794 
z
" transform="scale(0.015625)"/>
      </defs>
      <use xlink:href="#DejaVuSans-74"/>
      <use xlink:href="#DejaVuSans-69" transform="translate(39.208984 0)"/>
      <use xlink:href="#DejaVuSans-6d" transform="translate(66.992188 0)"/>
      <use xlink:href="#DejaVuSans-65" transform="translate(164.404297 0)"/>
      <use xlink:href="#DejaVuSans-20" transform="translate(225.927734 0)"/>
      <use xlink:href="#DejaVuSans-74" transform="translate(257.714844 0)"/>
      <use xlink:href="#DejaVuSans-6f" transform="translate(296.923828 0)"/>
      <use xlink:href="#DejaVuSans-20" transform="translate(358.105469 0)"/>
      <use xlink:href="#DejaVuSans-72" transform="translate(389.892578 0)"/>
      <use xlink:href="#DejaVuSans-65" transform="translate(428.755859 0)"/>
      <use xlink:href="#DejaVuSans-73" transform="translate(490.279297 0)"/>
      <use xlink:href="#DejaVuSans-75" transform="translate(542.378906 0)"/>
      <use xlink:href="#DejaVuSans-6c" transform="translate(605.757812 0)"/>
      <use xlink:href="#DejaVuSans-74" transform="translate(633.541016 0)"/>
      <use xlink:href="#DejaVuSans-20" transform="translate(672.75 0)"/>
      <use xlink:href="#DejaVuSans-28" transform="translate(704.537109 0)"/>
      <use xlink:href="#DejaVuSans-73" transform="translate(743.550781 0)"/>
      <use xlink:href="#DejaVuSans-2c" transform="translate(795.650391 0)"/>
      <use xlink:href="#DejaVuSans-20" transform="translate(827.4375 0)"/>
      <use xlink:href="#DejaVuSans-6c" transform="translate(859.224609 0)"/>
      <use xlink:href="#DejaVuSans-6f" transform="translate(887.007812 0)"/>
      <use xlink:href="#DejaVuSans-67" transform="translate(948.189453 0)"/>
      <use xlink:href="#DejaVuSans-29" transform="translate(1011.666016 0)"/>
     </g>
    </g>
   </g>
   <g id="patch_10">
    <path d="M 327.551355 251.92 
L 327.551355 66.912 
" style="fill: none; stroke: #000000; stroke-width: 0.8; stroke-linejoin: miter; stroke-linecap: square"/>
   </g>
   <g id="patch_11">
    <path d="M 561.17125 251.92 
L 561.17125 66.912 
" style="fill: none; stroke: #000000; stroke-width: 0.8; stroke-linejoin: miter; stroke-linecap: square"/>
   </g>
   <g id="patch_12">
    <path d="M 327.551355 251.92 
L 561.17125 251.92 
" style="fill: none; stroke: #000000; stroke-width: 0.8; stroke-linejoin: miter; stroke-linecap: square"/>
   </g>
   <g id="patch_13">
    <path d="M 327.551355 66.912 
L 561.17125 66.912 
" style="fill: none; stroke: #000000; stroke-width: 0.8; stroke-linejoin: miter; stroke-linecap: square"/>
   </g>
   <g id="PathCollection_1">
    <defs>
     <path id="m752790aaf1" d="M 0 3.535534 
C 0.937635 3.535534 1.836992 3.163008 2.5 2.5 
C 3.163008 1.836992 3.535534 0.937635 3.535534 0 
C 3.535534 -0.937635 3.163008 -1.836992 2.5 -2.5 
C 1.836992 -3.163008 0.937635 -3.535534 0 -3.535534 
C -0.937635 -3.535534 -1.836992 -3.163008 -2.5 -2.5 
C -3.163008 -1.836992 -3.535534 -0.937635 -3.535534 0 
C -3.535534 0.937635 -3.163008 1.836992 -2.5 2.5 
C -1.836992 3.163008 -0.937635 3.535534 0 3.535534 
z
" style="stroke: #ffffff; stroke-width: 0.6"/>
    </defs>
    <g clip-path="url(#pdca9f7abb6)">
     <use xlink:href="#m752790aaf1" x="395.919977" y="75.321455" style="fill: #6c5b9e; stroke: #ffffff; stroke-width: 0.6"/>
     <use xlink:href="#m752790aaf1" x="383.442976" y="100.334952" style="fill: #6c5b9e; stroke: #ffffff; stroke-width: 0.6"/>
     <use xlink:href="#m752790aaf1" x="375.667658" y="243.510545" style="fill: #6c5b9e; stroke: #ffffff; stroke-width: 0.6"/>
    </g>
   </g>
   <g id="PathCollection_2">
    <defs>
     <path id="m8cb7da80a4" d="M 0 3.535534 
C 0.937635 3.535534 1.836992 3.163008 2.5 2.5 
C 3.163008 1.836992 3.535534 0.937635 3.535534 0 
C 3.535534 -0.937635 3.163008 -1.836992 2.5 -2.5 
C 1.836992 -3.163008 0.937635 -3.535534 0 -3.535534 
C -0.937635 -3.535534 -1.836992 -3.163008 -2.5 -2.5 
C -3.163008 -1.836992 -3.535534 -0.937635 -3.535534 0 
C -3.535534 0.937635 -3.163008 1.836992 -2.5 2.5 
C -1.836992 3.163008 -0.937635 3.535534 0 3.535534 
z
" style="stroke: #ffffff; stroke-width: 0.6"/>
    </defs>
    <g clip-path="url(#pdca9f7abb6)">
     <use xlink:href="#m8cb7da80a4" x="481.027822" y="199.172187" style="fill: #0e7c86; stroke: #ffffff; stroke-width: 0.6"/>
     <use xlink:href="#m8cb7da80a4" x="508.101993" y="234.128615" style="fill: #0e7c86; stroke: #ffffff; stroke-width: 0.6"/>
     <use xlink:href="#m8cb7da80a4" x="511.482612" y="236.369912" style="fill: #0e7c86; stroke: #ffffff; stroke-width: 0.6"/>
    </g>
   </g>
   <g id="text_21">
    <!-- iqm_emerald×2 -->
    <g style="fill: #6c5b9e" transform="translate(367.259309 278.479062) scale(0.06 -0.06)">
     <use xlink:href="#DejaVuSans-69"/>
     <use xlink:href="#DejaVuSans-71" transform="translate(27.783203 0)"/>
     <use xlink:href="#DejaVuSans-6d" transform="translate(91.259766 0)"/>
     <use xlink:href="#DejaVuSans-5f" transform="translate(188.671875 0)"/>
     <use xlink:href="#DejaVuSans-65" transform="translate(238.671875 0)"/>
     <use xlink:href="#DejaVuSans-6d" transform="translate(300.195312 0)"/>
     <use xlink:href="#DejaVuSans-65" transform="translate(397.607422 0)"/>
     <use xlink:href="#DejaVuSans-72" transform="translate(459.130859 0)"/>
     <use xlink:href="#DejaVuSans-61" transform="translate(500.244141 0)"/>
     <use xlink:href="#DejaVuSans-6c" transform="translate(561.523438 0)"/>
     <use xlink:href="#DejaVuSans-64" transform="translate(589.306641 0)"/>
     <use xlink:href="#DejaVuSans-d7" transform="translate(652.783203 0)"/>
     <use xlink:href="#DejaVuSans-32" transform="translate(736.572266 0)"/>
    </g>
    <!-- rigetti_cepheus×1 -->
    <g style="fill: #6c5b9e" transform="translate(363.729153 285.364625) scale(0.06 -0.06)">
     <defs>
      <path id="DejaVuSans-68" d="M 3513 2113 
L 3513 0 
L 2938 0 
L 2938 2094 
Q 2938 2591 2744 2837 
Q 2550 3084 2163 3084 
Q 1697 3084 1428 2787 
Q 1159 2491 1159 1978 
L 1159 0 
L 581 0 
L 581 4863 
L 1159 4863 
L 1159 2956 
Q 1366 3272 1645 3428 
Q 1925 3584 2291 3584 
Q 2894 3584 3203 3211 
Q 3513 2838 3513 2113 
z
" transform="scale(0.015625)"/>
     </defs>
     <use xlink:href="#DejaVuSans-72"/>
     <use xlink:href="#DejaVuSans-69" transform="translate(41.113281 0)"/>
     <use xlink:href="#DejaVuSans-67" transform="translate(68.896484 0)"/>
     <use xlink:href="#DejaVuSans-65" transform="translate(132.373047 0)"/>
     <use xlink:href="#DejaVuSans-74" transform="translate(193.896484 0)"/>
     <use xlink:href="#DejaVuSans-74" transform="translate(233.105469 0)"/>
     <use xlink:href="#DejaVuSans-69" transform="translate(272.314453 0)"/>
     <use xlink:href="#DejaVuSans-5f" transform="translate(300.097656 0)"/>
     <use xlink:href="#DejaVuSans-63" transform="translate(350.097656 0)"/>
     <use xlink:href="#DejaVuSans-65" transform="translate(405.078125 0)"/>
     <use xlink:href="#DejaVuSans-70" transform="translate(466.601562 0)"/>
     <use xlink:href="#DejaVuSans-68" transform="translate(530.078125 0)"/>
     <use xlink:href="#DejaVuSans-65" transform="translate(593.457031 0)"/>
     <use xlink:href="#DejaVuSans-75" transform="translate(654.980469 0)"/>
     <use xlink:href="#DejaVuSans-73" transform="translate(718.359375 0)"/>
     <use xlink:href="#DejaVuSans-d7" transform="translate(770.458984 0)"/>
     <use xlink:href="#DejaVuSans-31" transform="translate(854.248047 0)"/>
    </g>
   </g>
   <g id="text_22">
    <!-- iqm_emerald×2 -->
    <g style="fill: #0e7c86" transform="translate(473.450171 278.479062) scale(0.06 -0.06)">
     <use xlink:href="#DejaVuSans-69"/>
     <use xlink:href="#DejaVuSans-71" transform="translate(27.783203 0)"/>
     <use xlink:href="#DejaVuSans-6d" transform="translate(91.259766 0)"/>
     <use xlink:href="#DejaVuSans-5f" transform="translate(188.671875 0)"/>
     <use xlink:href="#DejaVuSans-65" transform="translate(238.671875 0)"/>
     <use xlink:href="#DejaVuSans-6d" transform="translate(300.195312 0)"/>
     <use xlink:href="#DejaVuSans-65" transform="translate(397.607422 0)"/>
     <use xlink:href="#DejaVuSans-72" transform="translate(459.130859 0)"/>
     <use xlink:href="#DejaVuSans-61" transform="translate(500.244141 0)"/>
     <use xlink:href="#DejaVuSans-6c" transform="translate(561.523438 0)"/>
     <use xlink:href="#DejaVuSans-64" transform="translate(589.306641 0)"/>
     <use xlink:href="#DejaVuSans-d7" transform="translate(652.783203 0)"/>
     <use xlink:href="#DejaVuSans-32" transform="translate(736.572266 0)"/>
    </g>
    <!-- iqm_garnet×1 -->
    <g style="fill: #0e7c86" transform="translate(476.026889 285.364625) scale(0.06 -0.06)">
     <use xlink:href="#DejaVuSans-69"/>
     <use xlink:href="#DejaVuSans-71" transform="translate(27.783203 0)"/>
     <use xlink:href="#DejaVuSans-6d" transform="translate(91.259766 0)"/>
     <use xlink:href="#DejaVuSans-5f" transform="translate(188.671875 0)"/>
     <use xlink:href="#DejaVuSans-67" transform="translate(238.671875 0)"/>
     <use xlink:href="#DejaVuSans-61" transform="translate(302.148438 0)"/>
     <use xlink:href="#DejaVuSans-72" transform="translate(363.427734 0)"/>
     <use xlink:href="#DejaVuSans-6e" transform="translate(402.791016 0)"/>
     <use xlink:href="#DejaVuSans-65" transform="translate(466.169922 0)"/>
     <use xlink:href="#DejaVuSans-74" transform="translate(527.693359 0)"/>
     <use xlink:href="#DejaVuSans-d7" transform="translate(566.902344 0)"/>
     <use xlink:href="#DejaVuSans-31" transform="translate(650.691406 0)"/>
    </g>
   </g>
   <g id="text_23">
    <!-- Time to result -->
    <g transform="translate(406.330521 60.912) scale(0.11 -0.11)">
     <defs>
      <path id="DejaVuSans-54" d="M -19 4666 
L 3928 4666 
L 3928 4134 
L 2272 4134 
L 2272 0 
L 1638 0 
L 1638 4134 
L -19 4134 
L -19 4666 
z
" transform="scale(0.015625)"/>
     </defs>
     <use xlink:href="#DejaVuSans-54"/>
     <use xlink:href="#DejaVuSans-69" transform="translate(57.958984 0)"/>
     <use xlink:href="#DejaVuSans-6d" transform="translate(85.742188 0)"/>
     <use xlink:href="#DejaVuSans-65" transform="translate(183.154297 0)"/>
     <use xlink:href="#DejaVuSans-20" transform="translate(244.677734 0)"/>
     <use xlink:href="#DejaVuSans-74" transform="translate(276.464844 0)"/>
     <use xlink:href="#DejaVuSans-6f" transform="translate(315.673828 0)"/>
     <use xlink:href="#DejaVuSans-20" transform="translate(376.855469 0)"/>
     <use xlink:href="#DejaVuSans-72" transform="translate(408.642578 0)"/>
     <use xlink:href="#DejaVuSans-65" transform="translate(447.505859 0)"/>
     <use xlink:href="#DejaVuSans-73" transform="translate(509.029297 0)"/>
     <use xlink:href="#DejaVuSans-75" transform="translate(561.128906 0)"/>
     <use xlink:href="#DejaVuSans-6c" transform="translate(624.507812 0)"/>
     <use xlink:href="#DejaVuSans-74" transform="translate(652.291016 0)"/>
    </g>
   </g>
   <g id="line2d_50">
    <path d="M 364.718156 100.334952 
L 417.813587 100.334952 
" clip-path="url(#pdca9f7abb6)" style="fill: none; stroke: #000000; stroke-width: 1.6; stroke-linecap: square"/>
   </g>
   <g id="line2d_51">
    <path d="M 470.909018 234.128615 
L 524.004448 234.128615 
" clip-path="url(#pdca9f7abb6)" style="fill: none; stroke: #000000; stroke-width: 1.6; stroke-linecap: square"/>
   </g>
  </g>
  <g id="text_24">
   <!-- Cost- and queue-aware selection -->
   <g transform="translate(172.856875 16.318125) scale(0.12 -0.12)">
    <defs>
     <path id="DejaVuSans-Bold-43" d="M 4288 256 
Q 3956 84 3597 -3 
Q 3238 -91 2847 -91 
Q 1681 -91 1000 561 
Q 319 1213 319 2328 
Q 319 3447 1000 4098 
Q 1681 4750 2847 4750 
Q 3238 4750 3597 4662 
Q 3956 4575 4288 4403 
L 4288 3438 
Q 3953 3666 3628 3772 
Q 3303 3878 2944 3878 
Q 2300 3878 1931 3465 
Q 1563 3053 1563 2328 
Q 1563 1606 1931 1193 
Q 2300 781 2944 781 
Q 3303 781 3628 887 
Q 3953 994 4288 1222 
L 4288 256 
z
" transform="scale(0.015625)"/>
     <path id="DejaVuSans-Bold-6f" d="M 2203 2784 
Q 1831 2784 1636 2517 
Q 1441 2250 1441 1747 
Q 1441 1244 1636 976 
Q 1831 709 2203 709 
Q 2569 709 2762 976 
Q 2956 1244 2956 1747 
Q 2956 2250 2762 2517 
Q 2569 2784 2203 2784 
z
M 2203 3584 
Q 3106 3584 3614 3096 
Q 4122 2609 4122 1747 
Q 4122 884 3614 396 
Q 3106 -91 2203 -91 
Q 1297 -91 786 396 
Q 275 884 275 1747 
Q 275 2609 786 3096 
Q 1297 3584 2203 3584 
z
" transform="scale(0.015625)"/>
     <path id="DejaVuSans-Bold-73" d="M 3272 3391 
L 3272 2541 
Q 2913 2691 2578 2766 
Q 2244 2841 1947 2841 
Q 1628 2841 1473 2761 
Q 1319 2681 1319 2516 
Q 1319 2381 1436 2309 
Q 1553 2238 1856 2203 
L 2053 2175 
Q 2913 2066 3209 1816 
Q 3506 1566 3506 1031 
Q 3506 472 3093 190 
Q 2681 -91 1863 -91 
Q 1516 -91 1145 -36 
Q 775 19 384 128 
L 384 978 
Q 719 816 1070 734 
Q 1422 653 1784 653 
Q 2113 653 2278 743 
Q 2444 834 2444 1013 
Q 2444 1163 2330 1236 
Q 2216 1309 1875 1350 
L 1678 1375 
Q 931 1469 631 1722 
Q 331 1975 331 2491 
Q 331 3047 712 3315 
Q 1094 3584 1881 3584 
Q 2191 3584 2531 3537 
Q 2872 3491 3272 3391 
z
" transform="scale(0.015625)"/>
     <path id="DejaVuSans-Bold-74" d="M 1759 4494 
L 1759 3500 
L 2913 3500 
L 2913 2700 
L 1759 2700 
L 1759 1216 
Q 1759 972 1856 886 
Q 1953 800 2241 800 
L 2816 800 
L 2816 0 
L 1856 0 
Q 1194 0 917 276 
Q 641 553 641 1216 
L 641 2700 
L 84 2700 
L 84 3500 
L 641 3500 
L 641 4494 
L 1759 4494 
z
" transform="scale(0.015625)"/>
     <path id="DejaVuSans-Bold-2d" d="M 347 2297 
L 2309 2297 
L 2309 1388 
L 347 1388 
L 347 2297 
z
" transform="scale(0.015625)"/>
     <path id="DejaVuSans-Bold-20" transform="scale(0.015625)"/>
     <path id="DejaVuSans-Bold-61" d="M 2106 1575 
Q 1756 1575 1579 1456 
Q 1403 1338 1403 1106 
Q 1403 894 1545 773 
Q 1688 653 1941 653 
Q 2256 653 2472 879 
Q 2688 1106 2688 1447 
L 2688 1575 
L 2106 1575 
z
M 3816 1997 
L 3816 0 
L 2688 0 
L 2688 519 
Q 2463 200 2181 54 
Q 1900 -91 1497 -91 
Q 953 -91 614 226 
Q 275 544 275 1050 
Q 275 1666 698 1953 
Q 1122 2241 2028 2241 
L 2688 2241 
L 2688 2328 
Q 2688 2594 2478 2717 
Q 2269 2841 1825 2841 
Q 1466 2841 1156 2769 
Q 847 2697 581 2553 
L 581 3406 
Q 941 3494 1303 3539 
Q 1666 3584 2028 3584 
Q 2975 3584 3395 3211 
Q 3816 2838 3816 1997 
z
" transform="scale(0.015625)"/>
     <path id="DejaVuSans-Bold-6e" d="M 4056 2131 
L 4056 0 
L 2931 0 
L 2931 347 
L 2931 1631 
Q 2931 2084 2911 2256 
Q 2891 2428 2841 2509 
Q 2775 2619 2662 2680 
Q 2550 2741 2406 2741 
Q 2056 2741 1856 2470 
Q 1656 2200 1656 1722 
L 1656 0 
L 538 0 
L 538 3500 
L 1656 3500 
L 1656 2988 
Q 1909 3294 2193 3439 
Q 2478 3584 2822 3584 
Q 3428 3584 3742 3212 
Q 4056 2841 4056 2131 
z
" transform="scale(0.015625)"/>
     <path id="DejaVuSans-Bold-64" d="M 2919 2988 
L 2919 4863 
L 4044 4863 
L 4044 0 
L 2919 0 
L 2919 506 
Q 2688 197 2409 53 
Q 2131 -91 1766 -91 
Q 1119 -91 703 423 
Q 288 938 288 1747 
Q 288 2556 703 3070 
Q 1119 3584 1766 3584 
Q 2128 3584 2408 3439 
Q 2688 3294 2919 2988 
z
M 2181 722 
Q 2541 722 2730 984 
Q 2919 1247 2919 1747 
Q 2919 2247 2730 2509 
Q 2541 2772 2181 2772 
Q 1825 2772 1636 2509 
Q 1447 2247 1447 1747 
Q 1447 1247 1636 984 
Q 1825 722 2181 722 
z
" transform="scale(0.015625)"/>
     <path id="DejaVuSans-Bold-71" d="M 2181 2772 
Q 1825 2772 1636 2509 
Q 1447 2247 1447 1747 
Q 1447 1247 1636 984 
Q 1825 722 2181 722 
Q 2541 722 2730 984 
Q 2919 1247 2919 1747 
Q 2919 2247 2730 2509 
Q 2541 2772 2181 2772 
z
M 2919 506 
Q 2688 197 2409 53 
Q 2131 -91 1766 -91 
Q 1119 -91 703 423 
Q 288 938 288 1747 
Q 288 2556 703 3067 
Q 1119 3578 1766 3578 
Q 2131 3578 2409 3434 
Q 2688 3291 2919 2981 
L 2919 3500 
L 4044 3500 
L 4044 -1331 
L 2919 -1331 
L 2919 506 
z
" transform="scale(0.015625)"/>
     <path id="DejaVuSans-Bold-75" d="M 500 1363 
L 500 3500 
L 1625 3500 
L 1625 3150 
Q 1625 2866 1622 2436 
Q 1619 2006 1619 1863 
Q 1619 1441 1641 1255 
Q 1663 1069 1716 984 
Q 1784 875 1895 815 
Q 2006 756 2150 756 
Q 2500 756 2700 1025 
Q 2900 1294 2900 1772 
L 2900 3500 
L 4019 3500 
L 4019 0 
L 2900 0 
L 2900 506 
Q 2647 200 2364 54 
Q 2081 -91 1741 -91 
Q 1134 -91 817 281 
Q 500 653 500 1363 
z
" transform="scale(0.015625)"/>
     <path id="DejaVuSans-Bold-65" d="M 4031 1759 
L 4031 1441 
L 1416 1441 
Q 1456 1047 1700 850 
Q 1944 653 2381 653 
Q 2734 653 3104 758 
Q 3475 863 3866 1075 
L 3866 213 
Q 3469 63 3072 -14 
Q 2675 -91 2278 -91 
Q 1328 -91 801 392 
Q 275 875 275 1747 
Q 275 2603 792 3093 
Q 1309 3584 2216 3584 
Q 3041 3584 3536 3087 
Q 4031 2591 4031 1759 
z
M 2881 2131 
Q 2881 2450 2695 2645 
Q 2509 2841 2209 2841 
Q 1884 2841 1681 2658 
Q 1478 2475 1428 2131 
L 2881 2131 
z
" transform="scale(0.015625)"/>
     <path id="DejaVuSans-Bold-77" d="M 225 3500 
L 1313 3500 
L 1900 1088 
L 2491 3500 
L 3425 3500 
L 4013 1113 
L 4603 3500 
L 5691 3500 
L 4769 0 
L 3547 0 
L 2956 2406 
L 2369 0 
L 1147 0 
L 225 3500 
z
" transform="scale(0.015625)"/>
     <path id="DejaVuSans-Bold-72" d="M 3138 2547 
Q 2991 2616 2845 2648 
Q 2700 2681 2553 2681 
Q 2122 2681 1889 2404 
Q 1656 2128 1656 1613 
L 1656 0 
L 538 0 
L 538 3500 
L 1656 3500 
L 1656 2925 
Q 1872 3269 2151 3426 
Q 2431 3584 2822 3584 
Q 2878 3584 2943 3579 
Q 3009 3575 3134 3559 
L 3138 2547 
z
" transform="scale(0.015625)"/>
     <path id="DejaVuSans-Bold-6c" d="M 538 4863 
L 1656 4863 
L 1656 0 
L 538 0 
L 538 4863 
z
" transform="scale(0.015625)"/>
     <path id="DejaVuSans-Bold-63" d="M 3366 3391 
L 3366 2478 
Q 3138 2634 2908 2709 
Q 2678 2784 2431 2784 
Q 1963 2784 1702 2511 
Q 1441 2238 1441 1747 
Q 1441 1256 1702 982 
Q 1963 709 2431 709 
Q 2694 709 2930 787 
Q 3166 866 3366 1019 
L 3366 103 
Q 3103 6 2833 -42 
Q 2563 -91 2291 -91 
Q 1344 -91 809 395 
Q 275 881 275 1747 
Q 275 2613 809 3098 
Q 1344 3584 2291 3584 
Q 2566 3584 2833 3536 
Q 3100 3488 3366 3391 
z
" transform="scale(0.015625)"/>
     <path id="DejaVuSans-Bold-69" d="M 538 3500 
L 1656 3500 
L 1656 0 
L 538 0 
L 538 3500 
z
M 538 4863 
L 1656 4863 
L 1656 3950 
L 538 3950 
L 538 4863 
z
" transform="scale(0.015625)"/>
    </defs>
    <use xlink:href="#DejaVuSans-Bold-43"/>
    <use xlink:href="#DejaVuSans-Bold-6f" transform="translate(73.388672 0)"/>
    <use xlink:href="#DejaVuSans-Bold-73" transform="translate(142.089844 0)"/>
    <use xlink:href="#DejaVuSans-Bold-74" transform="translate(201.611328 0)"/>
    <use xlink:href="#DejaVuSans-Bold-2d" transform="translate(249.414062 0)"/>
    <use xlink:href="#DejaVuSans-Bold-20" transform="translate(290.917969 0)"/>
    <use xlink:href="#DejaVuSans-Bold-61" transform="translate(325.732422 0)"/>
    <use xlink:href="#DejaVuSans-Bold-6e" transform="translate(393.212891 0)"/>
    <use xlink:href="#DejaVuSans-Bold-64" transform="translate(464.404297 0)"/>
    <use xlink:href="#DejaVuSans-Bold-20" transform="translate(535.986328 0)"/>
    <use xlink:href="#DejaVuSans-Bold-71" transform="translate(570.800781 0)"/>
    <use xlink:href="#DejaVuSans-Bold-75" transform="translate(642.382812 0)"/>
    <use xlink:href="#DejaVuSans-Bold-65" transform="translate(713.574219 0)"/>
    <use xlink:href="#DejaVuSans-Bold-75" transform="translate(781.396484 0)"/>
    <use xlink:href="#DejaVuSans-Bold-65" transform="translate(852.587891 0)"/>
    <use xlink:href="#DejaVuSans-Bold-2d" transform="translate(920.410156 0)"/>
    <use xlink:href="#DejaVuSans-Bold-61" transform="translate(961.914062 0)"/>
    <use xlink:href="#DejaVuSans-Bold-77" transform="translate(1029.394531 0)"/>
    <use xlink:href="#DejaVuSans-Bold-61" transform="translate(1121.777344 0)"/>
    <use xlink:href="#DejaVuSans-Bold-72" transform="translate(1189.257812 0)"/>
    <use xlink:href="#DejaVuSans-Bold-65" transform="translate(1238.574219 0)"/>
    <use xlink:href="#DejaVuSans-Bold-20" transform="translate(1306.396484 0)"/>
    <use xlink:href="#DejaVuSans-Bold-73" transform="translate(1341.210938 0)"/>
    <use xlink:href="#DejaVuSans-Bold-65" transform="translate(1400.732422 0)"/>
    <use xlink:href="#DejaVuSans-Bold-6c" transform="translate(1468.554688 0)"/>
    <use xlink:href="#DejaVuSans-Bold-65" transform="translate(1502.832031 0)"/>
    <use xlink:href="#DejaVuSans-Bold-63" transform="translate(1570.654297 0)"/>
    <use xlink:href="#DejaVuSans-Bold-74" transform="translate(1629.931641 0)"/>
    <use xlink:href="#DejaVuSans-Bold-69" transform="translate(1677.734375 0)"/>
    <use xlink:href="#DejaVuSans-Bold-6f" transform="translate(1712.011719 0)"/>
    <use xlink:href="#DejaVuSans-Bold-6e" transform="translate(1780.712891 0)"/>
   </g>
  </g>
 </g>
 <defs>
  <clipPath id="p67f3011b0c">
   <rect x="43.78125" y="66.912" width="233.619895" height="185.008"/>
  </clipPath>
  <clipPath id="pdca9f7abb6">
   <rect x="327.551355" y="66.912" width="233.619895" height="185.008"/>
  </clipPath>
 </defs>
</svg>
